<?xml version="1.0" encoding="iso-8859-1"?>
<!-- Generator: Adobe Illustrator 19.0.0, SVG Export Plug-In . SVG Version: 6.00 Build 0)  -->
<svg version="1.1" id="Layer_1" xmlns="http://www.w3.org/2000/svg" xmlns:xlink="http://www.w3.org/1999/xlink" x="0px" y="0px"
	 viewBox="0 0 496.159 496.159" style="enable-background:new 0 0 496.159 496.159;" xml:space="preserve">
<path style="fill:#4ABC96;" d="M248.083,0.004C111.071,0.004,0,111.064,0,248.086c0,137.001,111.07,248.07,248.083,248.07
	c137.006,0,248.076-111.069,248.076-248.07C496.159,111.063,385.089,0.004,248.083,0.004z"/>
<polygon style="fill:#EAE7E1;" points="186.943,12.116 6.274,192.785 236.217,422.727 416.886,242.059 416.886,172.375 "/>
<path style="fill:#C6C5C4;" d="M244.559,0.048c-97.182,1.355-180.854,58.567-220.338,141l211.996,211.996l180.669-180.669
	L244.559,0.048z"/>
<path style="fill:#BAB8B6;" d="M244.559,0.048c-22.715,0.317-44.692,3.677-65.539,9.708l237.865,232.303v-69.683L244.559,0.048z"/>
<path style="fill:#F7F5F2;" d="M244.559,0.048c-4.531,0.063-9.033,0.245-13.502,0.548L416.886,182.08v-9.705L244.559,0.048z"/>
<path style="fill:#EDC988;" d="M104.421,212.072c-2.347,1.977-4.633,4.063-6.843,6.273c-2.206,2.206-4.288,4.487-6.262,6.83
	l101.631,101.631l13.104-13.104L104.421,212.072z"/>
<path style="fill:#E0AF4C;" d="M104.421,212.072c-2.199,1.852-4.341,3.805-6.42,5.861l101.91,101.91l6.141-6.14L104.421,212.072z"/>
<path style="fill:#C16842;" d="M223.113,320.997c-5.779-5.779-15.794-11.994-21.827-12.197c-3.882-0.131-13.384,9.27-13.308,13.052
	c0.122,6.088,6.345,16.218,12.204,22.077c9.498,9.498,18.089,7.823,24.421,1.49C230.936,339.086,232.611,330.495,223.113,320.997z"
	/>
<path style="fill:#EDC988;" d="M146.338,201.489c-2.347,1.977-4.633,4.063-6.843,6.273c-2.206,2.206-4.288,4.487-6.262,6.83
	l101.631,101.631l13.104-13.104L146.338,201.489z"/>
<path style="fill:#E0AF4C;" d="M146.338,201.489c-2.199,1.852-4.341,3.805-6.42,5.861l101.91,101.91l6.141-6.14L146.338,201.489z"/>
<path style="fill:#C16842;" d="M265.03,310.413c-5.779-5.779-15.794-11.994-21.827-12.197c-3.882-0.131-13.384,9.27-13.308,13.052
	c0.122,6.088,6.345,16.218,12.204,22.077c9.498,9.498,18.089,7.823,24.421,1.49C272.852,328.503,274.528,319.912,265.03,310.413z"/>
<path style="fill:#EDC988;" d="M162.171,166.322c-2.347,1.977-4.633,4.063-6.843,6.273c-2.206,2.206-4.288,4.487-6.262,6.83
	l101.631,101.631l13.104-13.104L162.171,166.322z"/>
<path style="fill:#E0AF4C;" d="M162.171,166.322c-2.199,1.852-4.341,3.805-6.42,5.861l101.91,101.91l6.141-6.14L162.171,166.322z"/>
<path style="fill:#C16842;" d="M280.863,275.247c-5.779-5.779-15.794-11.994-21.827-12.197c-3.882-0.131-13.384,9.27-13.308,13.052
	c0.122,6.088,6.345,16.218,12.204,22.077c9.498,9.498,18.089,7.823,24.421,1.49C288.686,293.336,290.361,284.745,280.863,275.247z"
	/>
<path style="fill:#EDC988;" d="M181.921,134.572c-2.347,1.977-4.633,4.063-6.843,6.273c-2.206,2.206-4.288,4.487-6.262,6.83
	l101.631,101.631l13.104-13.104L181.921,134.572z"/>
<path style="fill:#E0AF4C;" d="M181.921,134.572c-2.199,1.852-4.341,3.805-6.42,5.861l101.91,101.91l6.141-6.14L181.921,134.572z"/>
<path style="fill:#C16842;" d="M300.613,243.497c-5.779-5.779-15.794-11.994-21.827-12.197c-3.882-0.131-13.384,9.27-13.308,13.052
	c0.122,6.088,6.345,16.218,12.204,22.077c9.498,9.498,18.089,7.823,24.421,1.49C308.436,261.586,310.111,252.995,300.613,243.497z"
	/>
<path style="fill:#EDC988;" d="M218.421,118.072c-2.347,1.977-4.633,4.063-6.843,6.273c-2.206,2.206-4.288,4.487-6.262,6.83
	l101.631,101.631l13.104-13.104L218.421,118.072z"/>
<path style="fill:#E0AF4C;" d="M218.421,118.072c-2.199,1.852-4.341,3.805-6.42,5.861l101.91,101.91l6.141-6.14L218.421,118.072z"/>
<path style="fill:#C16842;" d="M337.113,226.997c-5.779-5.779-15.794-11.994-21.827-12.197c-3.882-0.131-13.384,9.27-13.308,13.052
	c0.122,6.088,6.345,16.218,12.204,22.077c9.498,9.498,18.089,7.823,24.421,1.49C344.935,245.086,346.611,236.495,337.113,226.997z"
	/>
<path style="fill:#EDC988;" d="M239.153,86.804c-2.347,1.977-4.633,4.063-6.843,6.273c-2.206,2.206-4.288,4.487-6.262,6.83
	L327.68,201.538l13.104-13.104L239.153,86.804z"/>
<path style="fill:#E0AF4C;" d="M239.153,86.804c-2.199,1.852-4.341,3.805-6.42,5.861l101.91,101.91l6.141-6.14L239.153,86.804z"/>
<path style="fill:#C16842;" d="M357.845,195.729c-5.779-5.779-15.794-11.994-21.827-12.197c-3.882-0.131-13.384,9.27-13.308,13.052
	c0.122,6.088,6.345,16.218,12.204,22.077c9.498,9.498,18.089,7.823,24.421,1.49C365.668,213.818,367.343,205.227,357.845,195.729z"
	/>
<polygon style="fill:#EAE7E1;" points="201.439,387.95 236.217,422.727 416.886,242.059 416.886,172.375 "/>
<polygon style="fill:#F7F5F2;" points="411.809,167.08 231.14,347.749 201.439,387.95 416.886,172.375 "/>
<polygon style="fill:#996511;" points="112.559,298.58 112.702,308.54 117.61,303.632 "/>
<polygon style="fill:#E2DDCF;" points="40.81,158.249 6.274,192.785 236.217,422.727 236.217,353.044 "/>
<path style="fill:#F7F5F2;" d="M27.534,134.397c-0.672,1.302-1.326,2.615-1.975,3.93l15.252,19.922l195.406,194.795v-9.964
	L27.534,134.397z"/>
<polygon style="fill:#C6A206;" points="295.31,51.582 299.998,55.582 299.998,47.27 "/>
<path style="fill:#C18111;" d="M22.669,144.372C14.528,162.037,8.407,180.82,4.591,200.43l108.11,108.11l0.018-74.118
	L22.669,144.372z"/>
<path style="fill:#996511;" d="M19.897,150.601C14.101,164.152,9.476,178.324,6.15,192.99l98.313,98.314l0.014-56.122
	L19.897,150.601z"/>
<path style="fill:#C18111;" d="M252.791,0.063c-1.567-0.029-3.134-0.06-4.708-0.06C148.08,0.004,61.91,59.177,22.647,144.419
	l90.101,90.101l187.25-187.25L252.791,0.063z"/>
<path style="fill:#BF4013;" d="M234.658,0.368C143.551,5.227,65.502,59.236,26.533,136.365l78.276,78.276L276.87,42.58
	L234.658,0.368z"/>
<g>
</g>
<g>
</g>
<g>
</g>
<g>
</g>
<g>
</g>
<g>
</g>
<g>
</g>
<g>
</g>
<g>
</g>
<g>
</g>
<g>
</g>
<g>
</g>
<g>
</g>
<g>
</g>
<g>
</g>
</svg>
